# xmcd
#
# Track frame offsets:
#	183
#	14265
#	28135
#	42270
#	56380
#	71770
#	86160
#	99888
#	112690
#	124860
#	137415
#	151923
#	166208
#	180705
#	193908
#	206483
#	219110
#	232173
#	246543
#	258083
#	271068
#	284495
#	297815
#
# Disc length: 4141 seconds
#
# Revision: 0
# Processed by: cddbd v1.4PL0 Copyright (c) Steve Scherf et al.
# Submitted via: EasyCDDAExtractor 4.6.0.1
#
DISCID=46102b17
DTITLE=Big Joe Williams - Baby Please Don't Go
DYEAR=1900
DGENRE=Blues
TTITLE0=Little Leg Woman
TTITLE1=Somebody's Been Borrowing ...
TTITLE2=49 Highway Blues
TTITLE3=Stepfather Blues
TTITLE4=Baby Please Don't Go
TTITLE5=Stack O' Dollars
TTITLE6=I Know You Gonna Miss Me
TTITLE7=Crawlin' King Snake
TTITLE8=Throw A Boogie Woogie
TTITLE9=Please Don't Go
TTITLE10=Highway 49
TTITLE11=Someday Baby
TTITLE12=Break 'Em On Down
TTITLE13=Drop Down Blues
TTITLE14=Baby Please Don't Go
TTITLE15=Mellow Apples
TTITLE16=Wild Cow Moan
TTITLE17=P Vine Blues
TTITLE18=King Biscuit Stomp
TTITLE19=I'm A Highway Man
TTITLE20=Banta Rooster Blues
TTITLE21=House Lady Blues
TTITLE22=Don't Leave Me Here
EXTD=Wolf Records\nWBJ 003 CD
EXTT0=
EXTT1=
EXTT2=
EXTT3=
EXTT4=
EXTT5=
EXTT6=
EXTT7=
EXTT8=
EXTT9=
EXTT10=
EXTT11=
EXTT12=
EXTT13=
EXTT14=
EXTT15=
EXTT16=
EXTT17=
EXTT18=
EXTT19=
EXTT20=
EXTT21=
EXTT22=
PLAYORDER=
